<mxfile host="app.diagrams.net" agent="Mozilla/5.0 (Windows NT 10.0; Win64; x64) AppleWebKit/537.36 (KHTML, like Gecko) Chrome/131.0.0.0 Safari/537.36 Edg/131.0.0.0" version="25.0.3">
  <diagram name="Page-1" id="6R09sJrMDKp5Akx9tDkf">
    <mxGraphModel dx="1338" dy="1316" grid="1" gridSize="10" guides="1" tooltips="1" connect="1" arrows="1" fold="1" page="1" pageScale="1" pageWidth="827" pageHeight="1169" math="0" shadow="0">
      <root>
        <mxCell id="0" />
        <mxCell id="1" parent="0" />
        <mxCell id="3uz0JcGGqckVB5_CLk8R-40" style="edgeStyle=orthogonalEdgeStyle;rounded=0;orthogonalLoop=1;jettySize=auto;html=1;entryX=0.5;entryY=0;entryDx=0;entryDy=0;" edge="1" parent="1" source="3uz0JcGGqckVB5_CLk8R-1" target="3uz0JcGGqckVB5_CLk8R-4">
          <mxGeometry relative="1" as="geometry">
            <Array as="points">
              <mxPoint x="30" y="310" />
            </Array>
          </mxGeometry>
        </mxCell>
        <mxCell id="3uz0JcGGqckVB5_CLk8R-41" value="Request For Purchase Report" style="edgeLabel;html=1;align=center;verticalAlign=middle;resizable=0;points=[];" vertex="1" connectable="0" parent="3uz0JcGGqckVB5_CLk8R-40">
          <mxGeometry x="0.3324" y="-3" relative="1" as="geometry">
            <mxPoint y="1" as="offset" />
          </mxGeometry>
        </mxCell>
        <mxCell id="3uz0JcGGqckVB5_CLk8R-42" style="edgeStyle=orthogonalEdgeStyle;rounded=0;orthogonalLoop=1;jettySize=auto;html=1;" edge="1" parent="1" source="3uz0JcGGqckVB5_CLk8R-1" target="3uz0JcGGqckVB5_CLk8R-5">
          <mxGeometry relative="1" as="geometry">
            <Array as="points">
              <mxPoint x="380" y="300" />
            </Array>
          </mxGeometry>
        </mxCell>
        <mxCell id="3uz0JcGGqckVB5_CLk8R-43" value="Request Sales Report" style="edgeLabel;html=1;align=center;verticalAlign=middle;resizable=0;points=[];" vertex="1" connectable="0" parent="3uz0JcGGqckVB5_CLk8R-42">
          <mxGeometry x="0.3776" y="3" relative="1" as="geometry">
            <mxPoint y="-1" as="offset" />
          </mxGeometry>
        </mxCell>
        <mxCell id="3uz0JcGGqckVB5_CLk8R-1" value="Request report" style="ellipse;whiteSpace=wrap;html=1;" vertex="1" parent="1">
          <mxGeometry x="140" y="240" width="120" height="80" as="geometry" />
        </mxCell>
        <mxCell id="3uz0JcGGqckVB5_CLk8R-29" style="edgeStyle=orthogonalEdgeStyle;rounded=0;orthogonalLoop=1;jettySize=auto;html=1;" edge="1" parent="1" source="3uz0JcGGqckVB5_CLk8R-2" target="3uz0JcGGqckVB5_CLk8R-1">
          <mxGeometry relative="1" as="geometry">
            <Array as="points">
              <mxPoint x="50" y="100" />
              <mxPoint x="50" y="280" />
            </Array>
          </mxGeometry>
        </mxCell>
        <mxCell id="3uz0JcGGqckVB5_CLk8R-30" value="Request Purchase Report" style="edgeLabel;html=1;align=center;verticalAlign=middle;resizable=0;points=[];" vertex="1" connectable="0" parent="3uz0JcGGqckVB5_CLk8R-29">
          <mxGeometry x="-0.0259" y="1" relative="1" as="geometry">
            <mxPoint x="-2" as="offset" />
          </mxGeometry>
        </mxCell>
        <mxCell id="3uz0JcGGqckVB5_CLk8R-2" value="Admin" style="rounded=0;whiteSpace=wrap;html=1;" vertex="1" parent="1">
          <mxGeometry x="130" y="60" width="120" height="60" as="geometry" />
        </mxCell>
        <mxCell id="3uz0JcGGqckVB5_CLk8R-35" style="edgeStyle=orthogonalEdgeStyle;rounded=0;orthogonalLoop=1;jettySize=auto;html=1;entryX=0;entryY=0.5;entryDx=0;entryDy=0;" edge="1" parent="1" source="3uz0JcGGqckVB5_CLk8R-4" target="3uz0JcGGqckVB5_CLk8R-2">
          <mxGeometry relative="1" as="geometry">
            <Array as="points">
              <mxPoint x="-50" y="500" />
              <mxPoint x="-50" y="90" />
            </Array>
          </mxGeometry>
        </mxCell>
        <mxCell id="3uz0JcGGqckVB5_CLk8R-37" value="Provide Purchase Report" style="edgeLabel;html=1;align=center;verticalAlign=middle;resizable=0;points=[];" vertex="1" connectable="0" parent="3uz0JcGGqckVB5_CLk8R-35">
          <mxGeometry x="-0.3201" y="-3" relative="1" as="geometry">
            <mxPoint as="offset" />
          </mxGeometry>
        </mxCell>
        <mxCell id="3uz0JcGGqckVB5_CLk8R-38" style="edgeStyle=orthogonalEdgeStyle;rounded=0;orthogonalLoop=1;jettySize=auto;html=1;" edge="1" parent="1" source="3uz0JcGGqckVB5_CLk8R-4" target="3uz0JcGGqckVB5_CLk8R-1">
          <mxGeometry relative="1" as="geometry" />
        </mxCell>
        <mxCell id="3uz0JcGGqckVB5_CLk8R-39" value="Sends Purchase Report" style="edgeLabel;html=1;align=center;verticalAlign=middle;resizable=0;points=[];" vertex="1" connectable="0" parent="3uz0JcGGqckVB5_CLk8R-38">
          <mxGeometry x="0.2975" y="2" relative="1" as="geometry">
            <mxPoint y="-1" as="offset" />
          </mxGeometry>
        </mxCell>
        <mxCell id="3uz0JcGGqckVB5_CLk8R-44" style="edgeStyle=orthogonalEdgeStyle;rounded=0;orthogonalLoop=1;jettySize=auto;html=1;" edge="1" parent="1" source="3uz0JcGGqckVB5_CLk8R-4">
          <mxGeometry relative="1" as="geometry">
            <mxPoint x="90" y="680" as="targetPoint" />
          </mxGeometry>
        </mxCell>
        <mxCell id="3uz0JcGGqckVB5_CLk8R-45" value="Fetch Purchase Data" style="edgeLabel;html=1;align=center;verticalAlign=middle;resizable=0;points=[];" vertex="1" connectable="0" parent="3uz0JcGGqckVB5_CLk8R-44">
          <mxGeometry x="-0.0428" y="2" relative="1" as="geometry">
            <mxPoint x="1" as="offset" />
          </mxGeometry>
        </mxCell>
        <mxCell id="3uz0JcGGqckVB5_CLk8R-4" value="Generate Purchase Report" style="ellipse;whiteSpace=wrap;html=1;" vertex="1" parent="1">
          <mxGeometry x="-30" y="460" width="120" height="80" as="geometry" />
        </mxCell>
        <mxCell id="3uz0JcGGqckVB5_CLk8R-36" style="edgeStyle=orthogonalEdgeStyle;rounded=0;orthogonalLoop=1;jettySize=auto;html=1;entryX=1;entryY=0.5;entryDx=0;entryDy=0;" edge="1" parent="1" source="3uz0JcGGqckVB5_CLk8R-5" target="3uz0JcGGqckVB5_CLk8R-2">
          <mxGeometry relative="1" as="geometry">
            <Array as="points">
              <mxPoint x="500" y="490" />
              <mxPoint x="500" y="90" />
            </Array>
          </mxGeometry>
        </mxCell>
        <mxCell id="3uz0JcGGqckVB5_CLk8R-46" style="edgeStyle=orthogonalEdgeStyle;rounded=0;orthogonalLoop=1;jettySize=auto;html=1;" edge="1" parent="1" source="3uz0JcGGqckVB5_CLk8R-5">
          <mxGeometry relative="1" as="geometry">
            <mxPoint x="360" y="670" as="targetPoint" />
            <Array as="points">
              <mxPoint x="470" y="510" />
              <mxPoint x="470" y="600" />
              <mxPoint x="360" y="600" />
            </Array>
          </mxGeometry>
        </mxCell>
        <mxCell id="3uz0JcGGqckVB5_CLk8R-47" value="Fetch Sales Data" style="edgeLabel;html=1;align=center;verticalAlign=middle;resizable=0;points=[];" vertex="1" connectable="0" parent="3uz0JcGGqckVB5_CLk8R-46">
          <mxGeometry x="0.2177" y="2" relative="1" as="geometry">
            <mxPoint x="1" as="offset" />
          </mxGeometry>
        </mxCell>
        <mxCell id="3uz0JcGGqckVB5_CLk8R-5" value="Generate Sales Report" style="ellipse;whiteSpace=wrap;html=1;" vertex="1" parent="1">
          <mxGeometry x="320" y="450" width="120" height="80" as="geometry" />
        </mxCell>
        <mxCell id="3uz0JcGGqckVB5_CLk8R-6" value="" style="shape=link;html=1;rounded=0;width=71.42857142857143;" edge="1" parent="1">
          <mxGeometry width="100" relative="1" as="geometry">
            <mxPoint x="65" y="710" as="sourcePoint" />
            <mxPoint x="165" y="710" as="targetPoint" />
          </mxGeometry>
        </mxCell>
        <mxCell id="3uz0JcGGqckVB5_CLk8R-7" value="Sales Data" style="text;html=1;align=center;verticalAlign=middle;whiteSpace=wrap;rounded=0;" vertex="1" parent="1">
          <mxGeometry x="283" y="700" width="130" height="30" as="geometry" />
        </mxCell>
        <mxCell id="3uz0JcGGqckVB5_CLk8R-22" value="" style="shape=link;html=1;rounded=0;width=77.14285714285715;" edge="1" parent="1">
          <mxGeometry width="100" relative="1" as="geometry">
            <mxPoint x="290" y="710" as="sourcePoint" />
            <mxPoint x="390" y="710" as="targetPoint" />
          </mxGeometry>
        </mxCell>
        <mxCell id="3uz0JcGGqckVB5_CLk8R-25" value="Purchase Data" style="text;html=1;align=center;verticalAlign=middle;whiteSpace=wrap;rounded=0;" vertex="1" parent="1">
          <mxGeometry x="40" y="700" width="140" height="30" as="geometry" />
        </mxCell>
        <mxCell id="3uz0JcGGqckVB5_CLk8R-54" style="edgeStyle=orthogonalEdgeStyle;rounded=0;orthogonalLoop=1;jettySize=auto;html=1;" edge="1" parent="1" source="3uz0JcGGqckVB5_CLk8R-28">
          <mxGeometry relative="1" as="geometry">
            <mxPoint x="140" y="670" as="targetPoint" />
          </mxGeometry>
        </mxCell>
        <mxCell id="3uz0JcGGqckVB5_CLk8R-55" value="Request Purchase Data" style="edgeLabel;html=1;align=center;verticalAlign=middle;resizable=0;points=[];" vertex="1" connectable="0" parent="3uz0JcGGqckVB5_CLk8R-54">
          <mxGeometry x="0.447" y="-1" relative="1" as="geometry">
            <mxPoint x="61" y="14" as="offset" />
          </mxGeometry>
        </mxCell>
        <mxCell id="3uz0JcGGqckVB5_CLk8R-58" style="edgeStyle=orthogonalEdgeStyle;rounded=0;orthogonalLoop=1;jettySize=auto;html=1;entryX=1;entryY=1;entryDx=0;entryDy=0;" edge="1" parent="1" source="3uz0JcGGqckVB5_CLk8R-28" target="3uz0JcGGqckVB5_CLk8R-1">
          <mxGeometry relative="1" as="geometry">
            <Array as="points">
              <mxPoint x="270" y="308" />
            </Array>
          </mxGeometry>
        </mxCell>
        <mxCell id="3uz0JcGGqckVB5_CLk8R-59" value="Request Purchase Report" style="edgeLabel;html=1;align=center;verticalAlign=middle;resizable=0;points=[];rotation=-90;" vertex="1" connectable="0" parent="3uz0JcGGqckVB5_CLk8R-58">
          <mxGeometry x="-0.1309" y="-5" relative="1" as="geometry">
            <mxPoint x="8" as="offset" />
          </mxGeometry>
        </mxCell>
        <mxCell id="3uz0JcGGqckVB5_CLk8R-28" value="Customer" style="rounded=0;whiteSpace=wrap;html=1;" vertex="1" parent="1">
          <mxGeometry x="210" y="550" width="120" height="60" as="geometry" />
        </mxCell>
        <mxCell id="3uz0JcGGqckVB5_CLk8R-33" style="edgeStyle=orthogonalEdgeStyle;rounded=0;orthogonalLoop=1;jettySize=auto;html=1;entryX=1;entryY=0.625;entryDx=0;entryDy=0;entryPerimeter=0;" edge="1" parent="1" source="3uz0JcGGqckVB5_CLk8R-2" target="3uz0JcGGqckVB5_CLk8R-1">
          <mxGeometry relative="1" as="geometry">
            <Array as="points">
              <mxPoint x="410" y="100" />
              <mxPoint x="410" y="290" />
            </Array>
          </mxGeometry>
        </mxCell>
        <mxCell id="3uz0JcGGqckVB5_CLk8R-34" value="Request Sales Report" style="edgeLabel;html=1;align=center;verticalAlign=middle;resizable=0;points=[];" vertex="1" connectable="0" parent="3uz0JcGGqckVB5_CLk8R-33">
          <mxGeometry x="0.1152" y="-2" relative="1" as="geometry">
            <mxPoint as="offset" />
          </mxGeometry>
        </mxCell>
        <mxCell id="3uz0JcGGqckVB5_CLk8R-50" style="edgeStyle=orthogonalEdgeStyle;rounded=0;orthogonalLoop=1;jettySize=auto;html=1;" edge="1" parent="1" source="3uz0JcGGqckVB5_CLk8R-49">
          <mxGeometry relative="1" as="geometry">
            <mxPoint x="100" y="750" as="targetPoint" />
          </mxGeometry>
        </mxCell>
        <mxCell id="3uz0JcGGqckVB5_CLk8R-51" value="Add and Update Purchase Data" style="edgeLabel;html=1;align=center;verticalAlign=middle;resizable=0;points=[];" vertex="1" connectable="0" parent="3uz0JcGGqckVB5_CLk8R-50">
          <mxGeometry x="0.1772" y="2" relative="1" as="geometry">
            <mxPoint as="offset" />
          </mxGeometry>
        </mxCell>
        <mxCell id="3uz0JcGGqckVB5_CLk8R-52" style="edgeStyle=orthogonalEdgeStyle;rounded=0;orthogonalLoop=1;jettySize=auto;html=1;" edge="1" parent="1" source="3uz0JcGGqckVB5_CLk8R-49">
          <mxGeometry relative="1" as="geometry">
            <mxPoint x="60" y="710" as="targetPoint" />
            <Array as="points">
              <mxPoint x="-40" y="710" />
            </Array>
          </mxGeometry>
        </mxCell>
        <mxCell id="3uz0JcGGqckVB5_CLk8R-53" value="Provide Supply Data" style="edgeLabel;html=1;align=center;verticalAlign=middle;resizable=0;points=[];" vertex="1" connectable="0" parent="3uz0JcGGqckVB5_CLk8R-52">
          <mxGeometry x="-0.3018" y="-1" relative="1" as="geometry">
            <mxPoint as="offset" />
          </mxGeometry>
        </mxCell>
        <mxCell id="3uz0JcGGqckVB5_CLk8R-56" style="edgeStyle=orthogonalEdgeStyle;rounded=0;orthogonalLoop=1;jettySize=auto;html=1;" edge="1" parent="1" source="3uz0JcGGqckVB5_CLk8R-49">
          <mxGeometry relative="1" as="geometry">
            <mxPoint x="351.45463423295456" y="750" as="targetPoint" />
            <Array as="points">
              <mxPoint x="-10" y="990" />
              <mxPoint x="352" y="990" />
            </Array>
          </mxGeometry>
        </mxCell>
        <mxCell id="3uz0JcGGqckVB5_CLk8R-57" value="Request Sales Data" style="edgeLabel;html=1;align=center;verticalAlign=middle;resizable=0;points=[];" vertex="1" connectable="0" parent="3uz0JcGGqckVB5_CLk8R-56">
          <mxGeometry x="-0.2983" y="5" relative="1" as="geometry">
            <mxPoint as="offset" />
          </mxGeometry>
        </mxCell>
        <mxCell id="3uz0JcGGqckVB5_CLk8R-60" style="edgeStyle=orthogonalEdgeStyle;rounded=0;orthogonalLoop=1;jettySize=auto;html=1;entryX=0;entryY=0.25;entryDx=0;entryDy=0;" edge="1" parent="1" source="3uz0JcGGqckVB5_CLk8R-49" target="3uz0JcGGqckVB5_CLk8R-2">
          <mxGeometry relative="1" as="geometry">
            <Array as="points">
              <mxPoint x="-160" y="940" />
              <mxPoint x="-160" y="75" />
            </Array>
          </mxGeometry>
        </mxCell>
        <mxCell id="3uz0JcGGqckVB5_CLk8R-61" value="Notify About the Purchase" style="edgeLabel;html=1;align=center;verticalAlign=middle;resizable=0;points=[];rotation=-90;" vertex="1" connectable="0" parent="3uz0JcGGqckVB5_CLk8R-60">
          <mxGeometry x="-0.2121" y="5" relative="1" as="geometry">
            <mxPoint y="1" as="offset" />
          </mxGeometry>
        </mxCell>
        <mxCell id="3uz0JcGGqckVB5_CLk8R-49" value="Suppiler" style="rounded=0;whiteSpace=wrap;html=1;" vertex="1" parent="1">
          <mxGeometry x="-70" y="910" width="120" height="60" as="geometry" />
        </mxCell>
      </root>
    </mxGraphModel>
  </diagram>
</mxfile>
